<svg width="99" height="18" viewBox="0 0 99 18" fill="none" xmlns="http://www.w3.org/2000/svg">
<path d="M0.137784 14H2.90554V8.59233H8.23011V6.31037H2.90554V3.19105H8.8054V0.909091H0.137784V14ZM10.6159 0.909091V11.424C10.6223 13.2969 11.5939 14.1406 13.6841 14.0639C14.3617 14.032 14.7324 13.9361 15.0137 13.8466L14.579 11.8651C14.4703 11.9034 14.3425 11.9354 14.0676 11.9418C13.5435 11.9482 13.3453 11.6797 13.339 11.0597V0.909091H10.6159ZM20.4661 14.1918C23.4448 14.1918 25.2985 12.1527 25.2985 9.12926C25.2985 6.08665 23.4448 4.05398 20.4661 4.05398C17.4874 4.05398 15.6337 6.08665 15.6337 9.12926C15.6337 12.1527 17.4874 14.1918 20.4661 14.1918ZM20.4789 12.0824C19.1046 12.0824 18.4015 10.8232 18.4015 9.11009C18.4015 7.39702 19.1046 6.13139 20.4789 6.13139C21.8276 6.13139 22.5307 7.39702 22.5307 9.11009C22.5307 10.8232 21.8276 12.0824 20.4789 12.0824ZM28.4162 17.6818C30.4425 17.6818 31.5163 16.6463 32.0724 15.0611L35.8885 4.1946L33.0057 4.18182L30.9538 11.392H30.8516L28.8189 4.18182H25.9553L29.4773 14.2812L29.3175 14.6967C28.9595 15.6172 28.2756 15.6619 27.3168 15.3679L26.7031 17.4006C27.093 17.5668 27.7259 17.6818 28.4162 17.6818ZM40.5659 14.1598C42.1511 14.1598 42.9757 13.2457 43.3528 12.4276H43.4679V14H46.1525V0.909091H43.4359V5.83097H43.3528C42.9885 5.03196 42.2022 4.05398 40.5595 4.05398C38.4054 4.05398 36.5836 5.72869 36.5836 9.10369C36.5836 12.3892 38.3287 14.1598 40.5659 14.1598ZM41.4288 11.9929C40.0929 11.9929 39.3642 10.804 39.3642 9.09091C39.3642 7.39062 40.0801 6.22088 41.4288 6.22088C42.752 6.22088 43.4934 7.33949 43.4934 9.09091C43.4934 10.8423 42.7392 11.9929 41.4288 11.9929ZM52.6085 0.909091V14H55.2931V5.44744H55.4018L58.7896 13.9361H60.6177L64.0055 5.4794H64.1142V14H66.7988V0.909091H63.3855L59.7804 9.70455H59.627L56.0218 0.909091H52.6085ZM69.0281 14H71.7511V4.18182H69.0281V14ZM70.396 2.91619C71.2077 2.91619 71.8725 2.29616 71.8725 1.53551C71.8725 0.78125 71.2077 0.161221 70.396 0.161221C69.5906 0.161221 68.9258 0.78125 68.9258 1.53551C68.9258 2.29616 69.5906 2.91619 70.396 2.91619ZM73.9324 0.909091V11.424C73.9387 13.2969 74.9103 14.1406 77.0005 14.0639C77.6781 14.032 78.0488 13.9361 78.3301 13.8466L77.8954 11.8651C77.7868 11.9034 77.6589 11.9354 77.3841 11.9418C76.8599 11.9482 76.6618 11.6797 76.6554 11.0597V0.909091H73.9324ZM83.8208 14.1918C86.2498 14.1918 87.8862 13.0092 88.2697 11.1875L85.7512 11.0213C85.4764 11.7692 84.7733 12.1591 83.8656 12.1591C82.5041 12.1591 81.6412 11.2578 81.6412 9.79403V9.78764H88.3272V9.03977C88.3272 5.70312 86.3074 4.05398 83.7122 4.05398C80.823 4.05398 78.9501 6.10582 78.9501 9.13565C78.9501 12.2486 80.7974 14.1918 83.8208 14.1918ZM81.6412 8.10014C81.6987 6.98153 82.5488 6.08665 83.7569 6.08665C84.9395 6.08665 85.7576 6.9304 85.764 8.10014H81.6412ZM98.2733 6.98153C98.0304 5.17259 96.573 4.05398 94.0929 4.05398C91.5808 4.05398 89.9252 5.21733 89.9316 7.10938C89.9252 8.57955 90.8521 9.53196 92.7697 9.91548L94.47 10.2543C95.3265 10.4268 95.7164 10.7401 95.7292 11.2322C95.7164 11.8139 95.0836 12.2294 94.1312 12.2294C93.1596 12.2294 92.514 11.8139 92.3478 11.0149L89.6696 11.1555C89.9252 13.0348 91.5233 14.1918 94.1248 14.1918C96.6689 14.1918 98.4906 12.8942 98.497 10.9574C98.4906 9.53835 97.5637 8.68821 95.6589 8.2983L93.8819 7.94034C92.9679 7.74219 92.6291 7.42898 92.6355 6.95597C92.6291 6.3679 93.2939 5.98438 94.1376 5.98438C95.0836 5.98438 95.6461 6.50213 95.7804 7.13494L98.2733 6.98153Z" fill="#18191F"/>
</svg>
